<svg version="1.1" xmlns="http://www.w3.org/2000/svg" xmlns:xlink="http://www.w3.org/1999/xlink" width="1455.95481" height="412.71449" viewBox="0,0,1455.95481,412.71449"><defs><radialGradient cx="-339.28813" cy="130.66249" r="15.42222" gradientUnits="userSpaceOnUse" id="color-1"><stop offset="0" stop-color="#fff563"/><stop offset="1" stop-color="#fff563" stop-opacity="0"/></radialGradient><radialGradient cx="-229.46108" cy="66.23632" r="15.42222" gradientUnits="userSpaceOnUse" id="color-2"><stop offset="0" stop-color="#fff563"/><stop offset="1" stop-color="#fff563" stop-opacity="0"/></radialGradient><radialGradient cx="-148.6313" cy="254.24944" r="15.42222" gradientUnits="userSpaceOnUse" id="color-3"><stop offset="0" stop-color="#fff563"/><stop offset="1" stop-color="#fff563" stop-opacity="0"/></radialGradient><radialGradient cx="-99.0801" cy="136.95754" r="15.42222" gradientUnits="userSpaceOnUse" id="color-4"><stop offset="0" stop-color="#fff563"/><stop offset="1" stop-color="#fff563" stop-opacity="0"/></radialGradient><radialGradient cx="-472.85317" cy="272.19752" r="15.42223" gradientUnits="userSpaceOnUse" id="color-5"><stop offset="0" stop-color="#fff563"/><stop offset="1" stop-color="#fff563" stop-opacity="0"/></radialGradient><radialGradient cx="-423.30197" cy="154.90562" r="15.42223" gradientUnits="userSpaceOnUse" id="color-6"><stop offset="0" stop-color="#fff563"/><stop offset="1" stop-color="#fff563" stop-opacity="0"/></radialGradient><radialGradient cx="-455.63325" cy="-11.29758" r="15.42223" gradientUnits="userSpaceOnUse" id="color-7"><stop offset="0" stop-color="#fff563"/><stop offset="1" stop-color="#fff563" stop-opacity="0"/></radialGradient><radialGradient cx="-347.59743" cy="56.08916" r="15.42223" gradientUnits="userSpaceOnUse" id="color-8"><stop offset="0" stop-color="#fff563"/><stop offset="1" stop-color="#fff563" stop-opacity="0"/></radialGradient><radialGradient cx="-25.49827" cy="8.23462" r="15.42223" gradientUnits="userSpaceOnUse" id="color-9"><stop offset="0" stop-color="#fff563"/><stop offset="1" stop-color="#fff563" stop-opacity="0"/></radialGradient><radialGradient cx="-133.53408" cy="75.62137" r="15.42223" gradientUnits="userSpaceOnUse" id="color-10"><stop offset="0" stop-color="#fff563"/><stop offset="1" stop-color="#fff563" stop-opacity="0"/></radialGradient><radialGradient cx="-265.76177" cy="202.02004" r="15.42223" gradientUnits="userSpaceOnUse" id="color-11"><stop offset="0" stop-color="#fff563"/><stop offset="1" stop-color="#fff563" stop-opacity="0"/></radialGradient><radialGradient cx="-373.79759" cy="269.40678" r="15.42223" gradientUnits="userSpaceOnUse" id="color-12"><stop offset="0" stop-color="#fff563"/><stop offset="1" stop-color="#fff563" stop-opacity="0"/></radialGradient><radialGradient cx="-44.85089" cy="186.67631" r="15.42223" gradientUnits="userSpaceOnUse" id="color-13"><stop offset="0" stop-color="#fff563"/><stop offset="1" stop-color="#fff563" stop-opacity="0"/></radialGradient><radialGradient cx="-83.57627" cy="307.9737" r="15.42223" gradientUnits="userSpaceOnUse" id="color-14"><stop offset="0" stop-color="#fff563"/><stop offset="1" stop-color="#fff563" stop-opacity="0"/></radialGradient><radialGradient cx="-211.48545" cy="278.81253" r="15.42223" gradientUnits="userSpaceOnUse" id="color-15"><stop offset="0" stop-color="#fff563"/><stop offset="1" stop-color="#fff563" stop-opacity="0"/></radialGradient><radialGradient cx="-324.59918" cy="337.27615" r="15.42223" gradientUnits="userSpaceOnUse" id="color-16"><stop offset="0" stop-color="#fff563"/><stop offset="1" stop-color="#fff563" stop-opacity="0"/></radialGradient><radialGradient cx="-167.52875" cy="3.37944" r="15.42223" gradientUnits="userSpaceOnUse" id="color-17"><stop offset="0" stop-color="#fff563"/><stop offset="1" stop-color="#fff563" stop-opacity="0"/></radialGradient><radialGradient cx="-294.64084" cy="-4.0521" r="15.42223" gradientUnits="userSpaceOnUse" id="color-18"><stop offset="0" stop-color="#fff563"/><stop offset="1" stop-color="#fff563" stop-opacity="0"/></radialGradient><radialGradient cx="152.33847" cy="142.5538" r="15.42222" gradientUnits="userSpaceOnUse" id="color-19"><stop offset="0" stop-color="#fff563"/><stop offset="1" stop-color="#fff563" stop-opacity="0"/></radialGradient><radialGradient cx="262.16553" cy="78.12762" r="15.42222" gradientUnits="userSpaceOnUse" id="color-20"><stop offset="0" stop-color="#fff563"/><stop offset="1" stop-color="#fff563" stop-opacity="0"/></radialGradient><radialGradient cx="342.99529" cy="266.14075" r="15.42222" gradientUnits="userSpaceOnUse" id="color-21"><stop offset="0" stop-color="#fff563"/><stop offset="1" stop-color="#fff563" stop-opacity="0"/></radialGradient><radialGradient cx="392.54649" cy="148.84885" r="15.42224" gradientUnits="userSpaceOnUse" id="color-22"><stop offset="0" stop-color="#fff563"/><stop offset="1" stop-color="#fff563" stop-opacity="0"/></radialGradient><radialGradient cx="18.77342" cy="284.08884" r="15.42222" gradientUnits="userSpaceOnUse" id="color-23"><stop offset="0" stop-color="#fff563"/><stop offset="1" stop-color="#fff563" stop-opacity="0"/></radialGradient><radialGradient cx="68.32462" cy="166.79694" r="15.42224" gradientUnits="userSpaceOnUse" id="color-24"><stop offset="0" stop-color="#fff563"/><stop offset="1" stop-color="#fff563" stop-opacity="0"/></radialGradient><radialGradient cx="35.99334" cy="0.59373" r="15.42223" gradientUnits="userSpaceOnUse" id="color-25"><stop offset="0" stop-color="#fff563"/><stop offset="1" stop-color="#fff563" stop-opacity="0"/></radialGradient><radialGradient cx="144.02917" cy="67.98048" r="15.42222" gradientUnits="userSpaceOnUse" id="color-26"><stop offset="0" stop-color="#fff563"/><stop offset="1" stop-color="#fff563" stop-opacity="0"/></radialGradient><radialGradient cx="466.12833" cy="20.12593" r="15.42223" gradientUnits="userSpaceOnUse" id="color-27"><stop offset="0" stop-color="#fff563"/><stop offset="1" stop-color="#fff563" stop-opacity="0"/></radialGradient><radialGradient cx="358.09252" cy="87.51267" r="15.42223" gradientUnits="userSpaceOnUse" id="color-28"><stop offset="0" stop-color="#fff563"/><stop offset="1" stop-color="#fff563" stop-opacity="0"/></radialGradient><radialGradient cx="225.86482" cy="213.91134" r="15.42223" gradientUnits="userSpaceOnUse" id="color-29"><stop offset="0" stop-color="#fff563"/><stop offset="1" stop-color="#fff563" stop-opacity="0"/></radialGradient><radialGradient cx="117.82902" cy="281.29809" r="15.42223" gradientUnits="userSpaceOnUse" id="color-30"><stop offset="0" stop-color="#fff563"/><stop offset="1" stop-color="#fff563" stop-opacity="0"/></radialGradient><radialGradient cx="446.77571" cy="198.56762" r="15.42222" gradientUnits="userSpaceOnUse" id="color-31"><stop offset="0" stop-color="#fff563"/><stop offset="1" stop-color="#fff563" stop-opacity="0"/></radialGradient><radialGradient cx="408.05034" cy="319.86501" r="15.42222" gradientUnits="userSpaceOnUse" id="color-32"><stop offset="0" stop-color="#fff563"/><stop offset="1" stop-color="#fff563" stop-opacity="0"/></radialGradient><radialGradient cx="280.14114" cy="290.70384" r="15.42222" gradientUnits="userSpaceOnUse" id="color-33"><stop offset="0" stop-color="#fff563"/><stop offset="1" stop-color="#fff563" stop-opacity="0"/></radialGradient><radialGradient cx="167.02742" cy="349.16746" r="15.42222" gradientUnits="userSpaceOnUse" id="color-34"><stop offset="0" stop-color="#fff563"/><stop offset="1" stop-color="#fff563" stop-opacity="0"/></radialGradient><radialGradient cx="324.09785" cy="15.27076" r="15.42223" gradientUnits="userSpaceOnUse" id="color-35"><stop offset="0" stop-color="#fff563"/><stop offset="1" stop-color="#fff563" stop-opacity="0"/></radialGradient><radialGradient cx="196.98575" cy="7.83921" r="15.42223" gradientUnits="userSpaceOnUse" id="color-36"><stop offset="0" stop-color="#fff563"/><stop offset="1" stop-color="#fff563" stop-opacity="0"/></radialGradient><radialGradient cx="638.8615" cy="164.65224" r="15.42222" gradientUnits="userSpaceOnUse" id="color-37"><stop offset="0" stop-color="#fff563"/><stop offset="1" stop-color="#fff563" stop-opacity="0"/></radialGradient><radialGradient cx="748.68856" cy="100.22607" r="15.42222" gradientUnits="userSpaceOnUse" id="color-38"><stop offset="0" stop-color="#fff563"/><stop offset="1" stop-color="#fff563" stop-opacity="0"/></radialGradient><radialGradient cx="829.51832" cy="288.2392" r="15.42222" gradientUnits="userSpaceOnUse" id="color-39"><stop offset="0" stop-color="#fff563"/><stop offset="1" stop-color="#fff563" stop-opacity="0"/></radialGradient><radialGradient cx="879.06952" cy="170.9473" r="15.42224" gradientUnits="userSpaceOnUse" id="color-40"><stop offset="0" stop-color="#fff563"/><stop offset="1" stop-color="#fff563" stop-opacity="0"/></radialGradient><radialGradient cx="505.29645" cy="306.18729" r="15.42222" gradientUnits="userSpaceOnUse" id="color-41"><stop offset="0" stop-color="#fff563"/><stop offset="1" stop-color="#fff563" stop-opacity="0"/></radialGradient><radialGradient cx="554.84765" cy="188.89539" r="15.42224" gradientUnits="userSpaceOnUse" id="color-42"><stop offset="0" stop-color="#fff563"/><stop offset="1" stop-color="#fff563" stop-opacity="0"/></radialGradient><radialGradient cx="522.51637" cy="22.69218" r="15.42223" gradientUnits="userSpaceOnUse" id="color-43"><stop offset="0" stop-color="#fff563"/><stop offset="1" stop-color="#fff563" stop-opacity="0"/></radialGradient><radialGradient cx="630.5522" cy="90.07893" r="15.42222" gradientUnits="userSpaceOnUse" id="color-44"><stop offset="0" stop-color="#fff563"/><stop offset="1" stop-color="#fff563" stop-opacity="0"/></radialGradient><radialGradient cx="952.65136" cy="42.22438" r="15.42223" gradientUnits="userSpaceOnUse" id="color-45"><stop offset="0" stop-color="#fff563"/><stop offset="1" stop-color="#fff563" stop-opacity="0"/></radialGradient><radialGradient cx="844.61555" cy="109.61112" r="15.42223" gradientUnits="userSpaceOnUse" id="color-46"><stop offset="0" stop-color="#fff563"/><stop offset="1" stop-color="#fff563" stop-opacity="0"/></radialGradient><radialGradient cx="712.38785" cy="236.00979" r="15.42223" gradientUnits="userSpaceOnUse" id="color-47"><stop offset="0" stop-color="#fff563"/><stop offset="1" stop-color="#fff563" stop-opacity="0"/></radialGradient><radialGradient cx="604.35204" cy="303.39654" r="15.42223" gradientUnits="userSpaceOnUse" id="color-48"><stop offset="0" stop-color="#fff563"/><stop offset="1" stop-color="#fff563" stop-opacity="0"/></radialGradient><radialGradient cx="933.29874" cy="220.66607" r="15.42222" gradientUnits="userSpaceOnUse" id="color-49"><stop offset="0" stop-color="#fff563"/><stop offset="1" stop-color="#fff563" stop-opacity="0"/></radialGradient><radialGradient cx="894.57337" cy="341.96346" r="15.42222" gradientUnits="userSpaceOnUse" id="color-50"><stop offset="0" stop-color="#fff563"/><stop offset="1" stop-color="#fff563" stop-opacity="0"/></radialGradient><radialGradient cx="766.66417" cy="312.80229" r="15.42222" gradientUnits="userSpaceOnUse" id="color-51"><stop offset="0" stop-color="#fff563"/><stop offset="1" stop-color="#fff563" stop-opacity="0"/></radialGradient><radialGradient cx="653.55045" cy="371.26591" r="15.42222" gradientUnits="userSpaceOnUse" id="color-52"><stop offset="0" stop-color="#fff563"/><stop offset="1" stop-color="#fff563" stop-opacity="0"/></radialGradient><radialGradient cx="810.62088" cy="37.36921" r="15.42223" gradientUnits="userSpaceOnUse" id="color-53"><stop offset="0" stop-color="#fff563"/><stop offset="1" stop-color="#fff563" stop-opacity="0"/></radialGradient><radialGradient cx="683.50878" cy="29.93766" r="15.42223" gradientUnits="userSpaceOnUse" id="color-54"><stop offset="0" stop-color="#fff563"/><stop offset="1" stop-color="#fff563" stop-opacity="0"/></radialGradient></defs><g transform="translate(487.9774,26.35725)"><g data-paper-data="{&quot;isPaintingLayer&quot;:true}" fill-rule="nonzero" stroke="none" stroke-width="0" stroke-linecap="butt" stroke-linejoin="miter" stroke-miterlimit="10" stroke-dasharray="" stroke-dashoffset="0" style="mix-blend-mode: normal"><path d="M-347.00626,133.47122c0,-3.61346 2.9293,-6.54275 6.54275,-6.54275c3.61346,0 6.54275,2.9293 6.54275,6.54275c0,3.61346 -2.9293,6.54275 -6.54275,6.54275c-3.61346,0 -6.54275,-2.9293 -6.54275,-6.54275z" fill="#70470a"/><path d="M-339.28813,146.0847c-8.25935,0 -14.95488,-6.90475 -14.95488,-15.42222c0,-8.51746 6.69552,-15.42222 14.95488,-15.42222c8.25935,0 14.95488,6.90475 14.95488,15.42222c0,8.51746 -6.69552,15.42222 -14.95488,15.42222z" fill="url(#color-1)"/><path d="M-237.17921,69.04505c0,-3.61346 2.9293,-6.54275 6.54275,-6.54275c3.61346,0 6.54275,2.9293 6.54275,6.54275c0,3.61346 -2.9293,6.54275 -6.54275,6.54275c-3.61346,0 -6.54275,-2.9293 -6.54275,-6.54275z" fill="#70470a"/><path d="M-229.46108,81.65854c-8.25935,0 -14.95488,-6.90475 -14.95488,-15.42222c0,-8.51746 6.69552,-15.42222 14.95488,-15.42222c8.25935,0 14.95488,6.90475 14.95488,15.42222c0,8.51746 -6.69552,15.42222 -14.95488,15.42222z" fill="url(#color-2)"/><path d="M-153.14079,261.11407c-2.15956,-2.89713 -1.56164,-6.9964 1.33549,-9.15596c2.89713,-2.15956 6.9964,-1.56164 9.15596,1.33549c2.15956,2.89713 1.56164,6.9964 -1.33549,9.15596c-2.89713,2.15956 -6.9964,1.56164 -9.15596,-1.33549z" fill="#70470a"/><path d="M-139.41431,266.61438c-6.62203,4.93615 -16.11683,3.40173 -21.20725,-3.42725c-5.09041,-6.82897 -3.84879,-16.36649 2.77325,-21.30264c6.62203,-4.93615 16.11683,-3.40173 21.20725,3.42725c5.09041,6.82897 3.84879,16.36649 -2.77325,21.30264z" fill="url(#color-3)"/><path d="M-103.58958,143.82217c-2.15956,-2.89713 -1.56164,-6.9964 1.33549,-9.15596c2.89713,-2.15956 6.9964,-1.56164 9.15596,1.33549c2.15956,2.89713 1.56164,6.9964 -1.33549,9.15596c-2.89713,2.15956 -6.9964,1.56164 -9.15596,-1.33549z" fill="#70470a"/><path d="M-89.86311,149.32248c-6.62203,4.93615 -16.11683,3.40173 -21.20725,-3.42725c-5.09041,-6.82897 -3.84879,-16.36649 2.77325,-21.30264c6.62203,-4.93615 16.11683,-3.40173 21.20725,3.42725c5.09041,6.82897 3.84879,16.36649 -2.77325,21.30264z" fill="url(#color-4)"/><path d="M-477.36266,279.06215c-2.15956,-2.89713 -1.56164,-6.9964 1.33549,-9.15596c2.89713,-2.15956 6.99641,-1.56164 9.15597,1.33549c2.15956,2.89713 1.56164,6.9964 -1.33549,9.15596c-2.89713,2.15956 -6.99641,1.56164 -9.15597,-1.33549z" fill="#70470a"/><path d="M-463.63618,284.56246c-6.62203,4.93615 -16.11684,3.40173 -21.20725,-3.42725c-5.09041,-6.82898 -3.84879,-16.36649 2.77325,-21.30264c6.62203,-4.93615 16.11683,-3.40173 21.20725,3.42725c5.09041,6.82898 3.84879,16.36649 -2.77325,21.30264z" fill="url(#color-5)"/><path d="M-427.81145,161.77025c-2.15956,-2.89713 -1.56164,-6.9964 1.33549,-9.15596c2.89713,-2.15956 6.9964,-1.56165 9.15596,1.33549c2.15956,2.89713 1.56164,6.99641 -1.33549,9.15597c-2.89713,2.15956 -6.9964,1.56164 -9.15596,-1.33549z" fill="#70470a"/><path d="M-414.08497,167.27056c-6.62203,4.93615 -16.11683,3.40172 -21.20725,-3.42726c-5.09041,-6.82898 -3.84879,-16.36648 2.77325,-21.30264c6.62203,-4.93615 16.11683,-3.40173 21.20725,3.42725c5.09041,6.82898 3.84879,16.36649 -2.77325,21.30264z" fill="url(#color-6)"/><path d="M-461.70296,-16.83087c3.2008,-1.67689 7.15496,-0.44151 8.83184,2.75929c1.67689,3.2008 0.44151,7.15496 -2.7593,8.83185c-3.2008,1.67689 -7.15496,0.44151 -8.83184,-2.75929c-1.67689,-3.2008 -0.44151,-7.15496 2.7593,-8.83185z" fill="#70470a"/><path d="M-469.29425,-4.14064c-3.83289,-7.31614 -0.82384,-16.45131 6.72094,-20.40399c7.54477,-3.95268 16.76818,-1.22605 20.60108,6.09009c3.83289,7.31614 0.82384,16.4513 -6.72094,20.40398c-7.54477,3.95268 -16.76818,1.22606 -20.60108,-6.09009z" fill="url(#color-7)"/><path d="M-353.66714,50.55588c3.2008,-1.67689 7.15496,-0.44151 8.83184,2.75929c1.67689,3.2008 0.44151,7.15496 -2.75929,8.83185c-3.2008,1.67689 -7.15496,0.44151 -8.83185,-2.7593c-1.67689,-3.2008 -0.44151,-7.15496 2.75929,-8.83184z" fill="#70470a"/><path d="M-361.25843,63.24611c-3.83289,-7.31614 -0.82383,-16.4513 6.72094,-20.40398c7.54477,-3.95268 16.76818,-1.22606 20.60107,6.09008c3.83289,7.31614 0.82384,16.4513 -6.72094,20.40398c-7.54477,3.95268 -16.76818,1.22606 -20.60108,-6.09009z" fill="url(#color-8)"/><path d="M-16.66926,11.53318c-1.67689,3.2008 -5.63105,4.43618 -8.83185,2.75929c-3.2008,-1.67689 -4.43618,-5.63105 -2.75929,-8.83185c1.67689,-3.2008 5.63104,-4.43618 8.83184,-2.75929c3.2008,1.67689 4.43619,5.63105 2.7593,8.83185z" data-paper-data="{&quot;index&quot;:null}" fill="#70470a"/><path d="M-32.43834,21.48165c-7.54478,-3.95268 -10.55383,-13.08784 -6.72094,-20.40398c3.8329,-7.31614 13.05631,-10.04277 20.60108,-6.09009c7.54478,3.95268 10.55383,13.08785 6.72094,20.40399c-3.8329,7.31614 -13.0563,10.04276 -20.60107,6.09008z" data-paper-data="{&quot;index&quot;:null}" fill="url(#color-9)"/><path d="M-124.70508,78.91993c-1.67689,3.2008 -5.63105,4.43618 -8.83185,2.75929c-3.2008,-1.67689 -4.43618,-5.63104 -2.75929,-8.83184c1.67689,-3.2008 5.63104,-4.43618 8.83184,-2.75929c3.2008,1.67689 4.43618,5.63104 2.75929,8.83184z" data-paper-data="{&quot;index&quot;:null}" fill="#70470a"/><path d="M-140.47416,88.86839c-7.54478,-3.95268 -10.55383,-13.08784 -6.72094,-20.40398c3.8329,-7.31614 13.0563,-10.04276 20.60107,-6.09009c7.54478,3.95268 10.55383,13.08785 6.72094,20.40398c-3.8329,7.31614 -13.05631,10.04276 -20.60108,6.09008z" data-paper-data="{&quot;index&quot;:null}" fill="url(#color-10)"/><path d="M-256.93277,205.3186c-1.67689,3.2008 -5.63105,4.43618 -8.83185,2.75929c-3.2008,-1.67689 -4.43618,-5.63105 -2.75929,-8.83185c1.67689,-3.2008 5.63104,-4.43618 8.83184,-2.75929c3.2008,1.67689 4.43619,5.63105 2.7593,8.83185z" data-paper-data="{&quot;index&quot;:null}" fill="#70470a"/><path d="M-272.70185,215.26707c-7.54478,-3.95268 -10.55383,-13.08784 -6.72094,-20.40398c3.8329,-7.31614 13.05631,-10.04277 20.60108,-6.09009c7.54478,3.95268 10.55383,13.08785 6.72094,20.40399c-3.8329,7.31614 -13.0563,10.04276 -20.60107,6.09008z" data-paper-data="{&quot;index&quot;:null}" fill="url(#color-11)"/><path d="M-364.96859,272.70535c-1.67689,3.2008 -5.63105,4.43618 -8.83185,2.75929c-3.2008,-1.67689 -4.43618,-5.63104 -2.75929,-8.83184c1.67689,-3.2008 5.63104,-4.43618 8.83184,-2.75929c3.2008,1.67689 4.43618,5.63104 2.75929,8.83184z" data-paper-data="{&quot;index&quot;:null}" fill="#70470a"/><path d="M-380.73767,282.65381c-7.54478,-3.95268 -10.55383,-13.08784 -6.72094,-20.40398c3.8329,-7.31614 13.0563,-10.04276 20.60107,-6.09009c7.54478,3.95268 10.55383,13.08785 6.72094,20.40398c-3.8329,7.31614 -13.05631,10.04276 -20.60108,6.09008z" data-paper-data="{&quot;index&quot;:null}" fill="url(#color-12)"/><path d="M-35.98605,183.47529c0.79381,3.52519 -1.42042,7.02644 -4.9456,7.82025c-3.52519,0.79381 -7.02644,-1.42042 -7.82025,-4.9456c-0.79381,-3.52519 1.42041,-7.02643 4.9456,-7.82024c3.52519,-0.79381 7.02644,1.42041 7.82025,4.9456z" data-paper-data="{&quot;index&quot;:null}" fill="#70470a"/><path d="M-41.56559,201.26587c-8.3094,1.87113 -16.51637,-3.14399 -18.33079,-11.20158c-1.81443,-8.0576 3.45078,-16.10641 11.76017,-17.97754c8.3094,-1.87113 16.51637,3.144 18.3308,11.20159c1.81443,8.0576 -3.45078,16.1064 -11.76018,17.97753z" data-paper-data="{&quot;index&quot;:null}" fill="url(#color-13)"/><path d="M-74.71143,304.77268c0.79381,3.52519 -1.42042,7.02644 -4.9456,7.82025c-3.52519,0.79381 -7.02643,-1.42042 -7.82024,-4.9456c-0.79381,-3.52519 1.42041,-7.02643 4.9456,-7.82024c3.52519,-0.79381 7.02643,1.42041 7.82024,4.9456z" data-paper-data="{&quot;index&quot;:null}" fill="#70470a"/><path d="M-80.29097,322.56326c-8.3094,1.87113 -16.51636,-3.14399 -18.33079,-11.20158c-1.81443,-8.0576 3.45078,-16.1064 11.76017,-17.97753c8.3094,-1.87113 16.51637,3.14399 18.3308,11.20158c1.81443,8.0576 -3.45078,16.1064 -11.76018,17.97753z" data-paper-data="{&quot;index&quot;:null}" fill="url(#color-14)"/><path d="M-202.9509,282.81169c-1.92931,3.0553 -5.97015,3.96809 -9.02544,2.03877c-3.0553,-1.92931 -3.96809,-5.97015 -2.03877,-9.02544c1.92931,-3.0553 5.97014,-3.96809 9.02544,-2.03878c3.0553,1.92931 3.96809,5.97015 2.03878,9.02545z" data-paper-data="{&quot;index&quot;:null}" fill="#70470a"/><path d="M-219.47023,291.45735c-7.2018,-4.54769 -9.46508,-13.89558 -5.05522,-20.87913c4.40987,-6.98356 13.82298,-8.95821 21.02477,-4.41054c7.2018,4.54769 9.46508,13.89559 5.05521,20.87914c-4.40987,6.98356 -13.82297,8.95821 -21.02476,4.41053z" data-paper-data="{&quot;index&quot;:null}" fill="url(#color-15)"/><path d="M-316.06464,341.27531c-1.92931,3.0553 -5.97015,3.96809 -9.02545,2.03878c-3.0553,-1.92931 -3.96808,-5.97014 -2.03877,-9.02544c1.92931,-3.0553 5.97014,-3.96809 9.02544,-2.03878c3.0553,1.92931 3.96809,5.97014 2.03878,9.02544z" data-paper-data="{&quot;index&quot;:null}" fill="#70470a"/><path d="M-332.58397,349.92097c-7.2018,-4.54769 -9.46508,-13.89558 -5.05521,-20.87913c4.40987,-6.98356 13.82297,-8.95821 21.02476,-4.41054c7.2018,4.54769 9.46508,13.89559 5.05522,20.87914c-4.40987,6.98356 -13.82298,8.95821 -21.02477,4.41053z" data-paper-data="{&quot;index&quot;:null}" fill="url(#color-16)"/><path d="M-162.22912,11.17339c-3.21817,1.64332 -7.15918,0.36664 -8.8025,-2.85152c-1.64332,-3.21817 -0.36664,-7.15918 2.85152,-8.8025c3.21817,-1.64332 7.15918,-0.36665 8.8025,2.85152c1.64332,3.21817 0.36664,7.15919 -2.85152,8.80251z" data-paper-data="{&quot;index&quot;:null}" fill="#70470a"/><path d="M-180.84766,10.18056c-3.87354,-7.58571 -1.05059,-16.78008 6.30523,-20.53625c7.35583,-3.75617 16.45903,-0.65171 20.33257,6.93399c3.87354,7.58571 1.05058,16.78009 -6.30524,20.53625c-7.35583,3.75617 -16.45902,0.6517 -20.33256,-6.934z" data-paper-data="{&quot;index&quot;:null}" fill="url(#color-17)"/><path d="M-289.3412,3.74185c-3.21817,1.64332 -7.15919,0.36664 -8.80251,-2.85152c-1.64332,-3.21817 -0.36664,-7.15918 2.85153,-8.8025c3.21817,-1.64332 7.15918,-0.36665 8.8025,2.85152c1.64332,3.21817 0.36665,7.15918 -2.85152,8.8025z" data-paper-data="{&quot;index&quot;:null}" fill="#70470a"/><path d="M-307.95975,2.74902c-3.87354,-7.58571 -1.05059,-16.78008 6.30524,-20.53624c7.35583,-3.75617 16.45902,-0.65171 20.33257,6.93399c3.87354,7.58571 1.05059,16.78009 -6.30524,20.53625c-7.35583,3.75617 -16.45902,0.6517 -20.33257,-6.934z" data-paper-data="{&quot;index&quot;:null}" fill="url(#color-18)"/><path d="M144.62034,145.36252c0,-3.61345 2.92931,-6.54274 6.54276,-6.54274c3.61345,0 6.54276,2.92929 6.54276,6.54274c0,3.61345 -2.92931,6.54276 -6.54276,6.54276c-3.61345,0 -6.54276,-2.92931 -6.54276,-6.54276z" fill="#70470a"/><path d="M152.33847,157.97602c-8.25936,0 -14.95488,-6.90475 -14.95488,-15.42222c0,-8.51746 6.69552,-15.42224 14.95488,-15.42224c8.25936,0 14.95488,6.90476 14.95488,15.42224c0,8.51746 -6.69552,15.42222 -14.95488,15.42222z" fill="url(#color-19)"/><path d="M254.44739,80.93637c0,-3.61345 2.92931,-6.54276 6.54276,-6.54276c3.61345,0 6.54274,2.92931 6.54274,6.54276c0,3.61345 -2.92929,6.54276 -6.54274,6.54276c-3.61345,0 -6.54276,-2.92931 -6.54276,-6.54276z" fill="#70470a"/><path d="M262.16553,93.54985c-8.25936,0 -14.95488,-6.90475 -14.95488,-15.42222c0,-8.51746 6.69552,-15.42222 14.95488,-15.42222c8.25936,0 14.95488,6.90475 14.95488,15.42222c0,8.51746 -6.69552,15.42222 -14.95488,15.42222z" fill="url(#color-20)"/><path d="M338.48582,273.00539c-2.15956,-2.89713 -1.56164,-6.99642 1.33549,-9.15597c2.89713,-2.15956 6.9964,-1.56164 9.15596,1.33549c2.15956,2.89713 1.56164,6.99642 -1.33549,9.15597c-2.89713,2.15956 -6.9964,1.56164 -9.15596,-1.33549z" fill="#70470a"/><path d="M352.21229,278.5057c-6.62204,4.93615 -16.11685,3.40173 -21.20726,-3.42726c-5.09041,-6.82897 -3.84878,-16.36649 2.77326,-21.30265c6.62204,-4.93615 16.11684,-3.40173 21.20725,3.42726c5.09041,6.82897 3.8488,16.36649 -2.77324,21.30265z" fill="url(#color-21)"/><path d="M388.03702,155.71347c-2.15956,-2.89713 -1.56164,-6.9964 1.33549,-9.15596c2.89713,-2.15956 6.9964,-1.56164 9.15596,1.33549c2.15956,2.89713 1.56164,6.9964 -1.33549,9.15596c-2.89713,2.15956 -6.9964,1.56164 -9.15596,-1.33549z" fill="#70470a"/><path d="M401.76349,161.2138c-6.62204,4.93615 -16.11684,3.40173 -21.20725,-3.42726c-5.09041,-6.82897 -3.8488,-16.36649 2.77324,-21.30265c6.62204,-4.93615 16.11684,-3.40173 21.20725,3.42726c5.09041,6.82897 3.8488,16.36649 -2.77324,21.30265z" fill="url(#color-22)"/><path d="M14.26395,290.95346c-2.15956,-2.89713 -1.56164,-6.9964 1.33549,-9.15596c2.89713,-2.15956 6.9964,-1.56164 9.15596,1.33549c2.15956,2.89713 1.56164,6.9964 -1.33549,9.15596c-2.89713,2.15956 -6.9964,1.56164 -9.15596,-1.33549z" fill="#70470a"/><path d="M27.99042,296.45376c-6.62204,4.93615 -16.11684,3.40175 -21.20726,-3.42724c-5.09041,-6.82898 -3.84878,-16.36649 2.77326,-21.30265c6.62204,-4.93615 16.11682,-3.40173 21.20725,3.42726c5.09041,6.82898 3.8488,16.36648 -2.77324,21.30264z" fill="url(#color-23)"/><path d="M63.81515,173.66156c-2.15956,-2.89713 -1.56164,-6.9964 1.33549,-9.15596c2.89713,-2.15956 6.9964,-1.56164 9.15596,1.33549c2.15956,2.89713 1.56164,6.9964 -1.33549,9.15596c-2.89713,2.15956 -6.9964,1.56164 -9.15596,-1.33549z" fill="#70470a"/><path d="M77.54162,179.16187c-6.62204,4.93615 -16.11682,3.40173 -21.20725,-3.42726c-5.09041,-6.82898 -3.8488,-16.36648 2.77324,-21.30264c6.62204,-4.93615 16.11682,-3.40173 21.20725,3.42726c5.09041,6.82898 3.8488,16.36648 -2.77324,21.30264z" fill="url(#color-24)"/><path d="M29.92364,-4.93956c3.2008,-1.67688 7.15496,-0.44149 8.83185,2.75931c1.67688,3.2008 0.44149,7.15496 -2.75931,8.83185c-3.2008,1.67688 -7.15495,0.44151 -8.83183,-2.75929c-1.67688,-3.2008 -0.44151,-7.15498 2.75929,-8.83186z" fill="#70470a"/><path d="M22.33235,7.75066c-3.83289,-7.31614 -0.82384,-16.4513 6.72093,-20.40398c7.54477,-3.95267 16.7682,-1.22604 20.60109,6.0901c3.83289,7.31614 0.82383,16.4513 -6.72095,20.40398c-7.54477,3.95267 -16.76818,1.22604 -20.60107,-6.0901z" fill="url(#color-25)"/><path d="M137.95945,62.4472c3.2008,-1.67688 7.15496,-0.44151 8.83185,2.75929c1.67688,3.2008 0.44151,7.15496 -2.75929,8.83185c-3.2008,1.67688 -7.15496,0.44151 -8.83185,-2.75929c-1.67688,-3.2008 -0.44151,-7.15496 2.75929,-8.83185z" fill="#70470a"/><path d="M130.36816,75.13741c-3.83289,-7.31614 -0.82383,-16.45128 6.72095,-20.40397c7.54477,-3.95267 16.76818,-1.22606 20.60107,6.09008c3.83289,7.31614 0.82384,16.4513 -6.72093,20.40398c-7.54477,3.95267 -16.7682,1.22604 -20.60109,-6.0901z" fill="url(#color-26)"/><path d="M474.95733,23.4245c-1.67688,3.2008 -5.63105,4.43617 -8.83185,2.75929c-3.2008,-1.67688 -4.43619,-5.63105 -2.75931,-8.83185c1.67688,-3.2008 5.63105,-4.43617 8.83185,-2.75929c3.2008,1.67688 4.43619,5.63105 2.75931,8.83185z" data-paper-data="{&quot;index&quot;:null}" fill="#70470a"/><path d="M459.18825,33.37296c-7.54477,-3.95269 -10.55382,-13.08784 -6.72093,-20.40398c3.83289,-7.31614 13.0563,-10.04277 20.60107,-6.0901c7.54477,3.95269 10.55382,13.08786 6.72093,20.404c-3.83289,7.31614 -13.0563,10.04275 -20.60107,6.09008z" data-paper-data="{&quot;index&quot;:null}" fill="url(#color-27)"/><path d="M366.92151,90.81124c-1.67688,3.2008 -5.63105,4.43617 -8.83185,2.75929c-3.2008,-1.67688 -4.43617,-5.63105 -2.75929,-8.83185c1.67688,-3.2008 5.63105,-4.43617 8.83185,-2.75929c3.2008,1.67688 4.43617,5.63105 2.75929,8.83185z" data-paper-data="{&quot;index&quot;:null}" fill="#70470a"/><path d="M351.15244,100.7597c-7.54477,-3.95269 -10.55384,-13.08784 -6.72095,-20.40398c3.83289,-7.31614 13.0563,-10.04275 20.60107,-6.09008c7.54477,3.95269 10.55384,13.08784 6.72095,20.40398c-3.83289,7.31614 -13.0563,10.04275 -20.60107,6.09008z" data-paper-data="{&quot;index&quot;:null}" fill="url(#color-28)"/><path d="M234.69383,217.20991c-1.67688,3.2008 -5.63105,4.43617 -8.83185,2.75929c-3.2008,-1.67688 -4.43619,-5.63105 -2.75931,-8.83185c1.67688,-3.2008 5.63105,-4.43617 8.83185,-2.75929c3.2008,1.67688 4.43619,5.63105 2.75931,8.83185z" data-paper-data="{&quot;index&quot;:null}" fill="#70470a"/><path d="M218.92474,227.15838c-7.54477,-3.95269 -10.55382,-13.08784 -6.72093,-20.40398c3.83289,-7.31614 13.0563,-10.04277 20.60107,-6.0901c7.54477,3.95269 10.55382,13.08786 6.72093,20.404c-3.83289,7.31614 -13.0563,10.04275 -20.60107,6.09008z" data-paper-data="{&quot;index&quot;:null}" fill="url(#color-29)"/><path d="M126.65801,284.59666c-1.67688,3.2008 -5.63105,4.43617 -8.83185,2.75929c-3.2008,-1.67688 -4.43617,-5.63105 -2.75929,-8.83185c1.67688,-3.2008 5.63105,-4.43617 8.83185,-2.75929c3.2008,1.67688 4.43617,5.63105 2.75929,8.83185z" data-paper-data="{&quot;index&quot;:null}" fill="#70470a"/><path d="M110.88894,294.54512c-7.54477,-3.95269 -10.55384,-13.08784 -6.72095,-20.40398c3.83289,-7.31614 13.0563,-10.04275 20.60107,-6.09008c7.54477,3.95269 10.55384,13.08784 6.72095,20.40398c-3.83289,7.31614 -13.0563,10.04275 -20.60107,6.09008z" data-paper-data="{&quot;index&quot;:null}" fill="url(#color-30)"/><path d="M455.64055,195.3666c0.79381,3.52518 -1.42043,7.02643 -4.94561,7.82024c-3.52518,0.79381 -7.02643,-1.42041 -7.82024,-4.94559c-0.79381,-3.52518 1.42041,-7.02643 4.94559,-7.82024c3.52518,-0.79381 7.02645,1.42041 7.82026,4.94559z" data-paper-data="{&quot;index&quot;:null}" fill="#70470a"/><path d="M450.06101,213.15718c-8.30941,1.87114 -16.51637,-3.14398 -18.33079,-11.20158c-1.81442,-8.05759 3.45078,-16.1064 11.76017,-17.97754c8.30941,-1.87114 16.51637,3.144 18.33079,11.2016c1.81442,8.05759 -3.45078,16.10639 -11.76017,17.97752z" data-paper-data="{&quot;index&quot;:null}" fill="url(#color-31)"/><path d="M416.91517,316.66399c0.79381,3.52518 -1.42043,7.02645 -4.94561,7.82026c-3.52518,0.79381 -7.02643,-1.42043 -7.82024,-4.94561c-0.79381,-3.52518 1.42043,-7.02643 4.94561,-7.82024c3.52518,-0.79381 7.02643,1.42041 7.82024,4.94559z" data-paper-data="{&quot;index&quot;:null}" fill="#70470a"/><path d="M411.33563,334.45457c-8.30941,1.87114 -16.51637,-3.14398 -18.33079,-11.20158c-1.81442,-8.05759 3.45078,-16.1064 11.76017,-17.97754c8.30941,-1.87114 16.51639,3.144 18.33081,11.2016c1.81442,8.05759 -3.45079,16.10639 -11.76018,17.97752z" data-paper-data="{&quot;index&quot;:null}" fill="url(#color-32)"/><path d="M288.6757,294.703c-1.92931,3.05531 -5.97015,3.96808 -9.02545,2.03877c-3.05531,-1.92931 -3.96808,-5.97015 -2.03877,-9.02545c1.92931,-3.05531 5.97013,-3.96808 9.02544,-2.03877c3.05531,1.92931 3.9681,5.97015 2.03879,9.02545z" data-paper-data="{&quot;index&quot;:null}" fill="#70470a"/><path d="M272.15635,303.34865c-7.2018,-4.54769 -9.46508,-13.89557 -5.05521,-20.87912c4.40986,-6.98355 13.82297,-8.95822 21.02477,-4.41054c7.2018,4.54769 9.46508,13.89559 5.05521,20.87914c-4.40986,6.98355 -13.82297,8.9582 -21.02477,4.41053z" data-paper-data="{&quot;index&quot;:null}" fill="url(#color-33)"/><path d="M175.56196,353.16662c-1.92931,3.05531 -5.97013,3.96808 -9.02544,2.03877c-3.05531,-1.92931 -3.96808,-5.97013 -2.03877,-9.02544c1.92931,-3.05531 5.97013,-3.9681 9.02544,-2.03879c3.05531,1.92931 3.96808,5.97015 2.03877,9.02545z" data-paper-data="{&quot;index&quot;:null}" fill="#70470a"/><path d="M159.04263,361.81229c-7.2018,-4.54769 -9.46508,-13.89559 -5.05521,-20.87914c4.40986,-6.98355 13.82295,-8.9582 21.02475,-4.41053c7.2018,4.54769 9.46509,13.89559 5.05523,20.87914c-4.40986,6.98355 -13.82297,8.9582 -21.02477,4.41053z" data-paper-data="{&quot;index&quot;:null}" fill="url(#color-34)"/><path d="M329.39748,23.0647c-3.21817,1.64332 -7.15918,0.36665 -8.8025,-2.85152c-1.64332,-3.21817 -0.36665,-7.15918 2.85152,-8.8025c3.21817,-1.64332 7.15918,-0.36665 8.8025,2.85152c1.64332,3.21817 0.36665,7.15918 -2.85152,8.8025z" data-paper-data="{&quot;index&quot;:null}" fill="#70470a"/><path d="M310.77893,22.07187c-3.87354,-7.58571 -1.05059,-16.7801 6.30524,-20.53625c7.35582,-3.75616 16.45905,-0.6517 20.33259,6.934c3.87354,7.58571 1.05057,16.7801 -6.30525,20.53625c-7.35582,3.75616 -16.45903,0.6517 -20.33257,-6.934z" data-paper-data="{&quot;index&quot;:null}" fill="url(#color-35)"/><path d="M202.28538,15.63316c-3.21817,1.64332 -7.15918,0.36665 -8.8025,-2.85152c-1.64332,-3.21817 -0.36665,-7.15918 2.85152,-8.8025c3.21817,-1.64332 7.15918,-0.36665 8.8025,2.85152c1.64332,3.21817 0.36665,7.15918 -2.85152,8.8025z" data-paper-data="{&quot;index&quot;:null}" fill="#70470a"/><path d="M183.66685,14.64032c-3.87354,-7.58571 -1.05059,-16.78008 6.30524,-20.53624c7.35582,-3.75616 16.45903,-0.6517 20.33257,6.934c3.87354,7.58571 1.05059,16.7801 -6.30524,20.53625c-7.35582,3.75616 -16.45903,0.65169 -20.33257,-6.93401z" data-paper-data="{&quot;index&quot;:null}" fill="url(#color-36)"/><path d="M631.14336,167.46097c0,-3.61345 2.92931,-6.54274 6.54276,-6.54274c3.61345,0 6.54276,2.92929 6.54276,6.54274c0,3.61345 -2.92931,6.54276 -6.54276,6.54276c-3.61345,0 -6.54276,-2.92931 -6.54276,-6.54276z" fill="#70470a"/><path d="M638.8615,180.07447c-8.25936,0 -14.95488,-6.90475 -14.95488,-15.42222c0,-8.51746 6.69552,-15.42224 14.95488,-15.42224c8.25936,0 14.95488,6.90476 14.95488,15.42224c0,8.51746 -6.69552,15.42222 -14.95488,15.42222z" fill="url(#color-37)"/><path d="M740.97042,103.03482c0,-3.61345 2.92931,-6.54276 6.54276,-6.54276c3.61345,0 6.54274,2.92931 6.54274,6.54276c0,3.61345 -2.92929,6.54276 -6.54274,6.54276c-3.61345,0 -6.54276,-2.92931 -6.54276,-6.54276z" fill="#70470a"/><path d="M748.68856,115.6483c-8.25936,0 -14.95488,-6.90475 -14.95488,-15.42222c0,-8.51746 6.69552,-15.42222 14.95488,-15.42222c8.25936,0 14.95488,6.90475 14.95488,15.42222c0,8.51746 -6.69552,15.42222 -14.95488,15.42222z" fill="url(#color-38)"/><path d="M825.00885,295.10384c-2.15956,-2.89713 -1.56164,-6.99642 1.33549,-9.15597c2.89713,-2.15956 6.9964,-1.56164 9.15596,1.33549c2.15956,2.89713 1.56164,6.99642 -1.33549,9.15597c-2.89713,2.15956 -6.9964,1.56164 -9.15596,-1.33549z" fill="#70470a"/><path d="M838.73532,300.60415c-6.62204,4.93615 -16.11685,3.40173 -21.20726,-3.42726c-5.09041,-6.82897 -3.84878,-16.36649 2.77326,-21.30265c6.62204,-4.93615 16.11684,-3.40173 21.20725,3.42726c5.09041,6.82897 3.8488,16.36649 -2.77324,21.30265z" fill="url(#color-39)"/><path d="M874.56005,177.81192c-2.15956,-2.89713 -1.56164,-6.9964 1.33549,-9.15596c2.89713,-2.15956 6.9964,-1.56164 9.15596,1.33549c2.15956,2.89713 1.56164,6.9964 -1.33549,9.15596c-2.89713,2.15956 -6.9964,1.56164 -9.15596,-1.33549z" fill="#70470a"/><path d="M888.28652,183.31225c-6.62204,4.93615 -16.11684,3.40173 -21.20725,-3.42726c-5.09041,-6.82897 -3.8488,-16.36649 2.77324,-21.30265c6.62204,-4.93615 16.11684,-3.40173 21.20725,3.42726c5.09041,6.82897 3.8488,16.36649 -2.77324,21.30265z" fill="url(#color-40)"/><path d="M500.78698,313.05191c-2.15956,-2.89713 -1.56164,-6.9964 1.33549,-9.15596c2.89713,-2.15956 6.9964,-1.56164 9.15596,1.33549c2.15956,2.89713 1.56164,6.9964 -1.33549,9.15596c-2.89713,2.15956 -6.9964,1.56164 -9.15596,-1.33549z" fill="#70470a"/><path d="M514.51345,318.55221c-6.62204,4.93615 -16.11684,3.40175 -21.20726,-3.42724c-5.09041,-6.82898 -3.84878,-16.36649 2.77326,-21.30265c6.62204,-4.93615 16.11682,-3.40173 21.20725,3.42726c5.09041,6.82898 3.8488,16.36648 -2.77324,21.30264z" fill="url(#color-41)"/><path d="M550.33818,195.76001c-2.15956,-2.89713 -1.56164,-6.9964 1.33549,-9.15596c2.89713,-2.15956 6.9964,-1.56164 9.15596,1.33549c2.15956,2.89713 1.56164,6.9964 -1.33549,9.15596c-2.89713,2.15956 -6.9964,1.56164 -9.15596,-1.33549z" fill="#70470a"/><path d="M564.06465,201.26032c-6.62204,4.93615 -16.11682,3.40173 -21.20725,-3.42726c-5.09041,-6.82898 -3.8488,-16.36648 2.77324,-21.30264c6.62204,-4.93615 16.11682,-3.40173 21.20725,3.42726c5.09041,6.82898 3.8488,16.36648 -2.77324,21.30264z" fill="url(#color-42)"/><path d="M516.44667,17.15889c3.2008,-1.67688 7.15496,-0.44149 8.83185,2.75931c1.67688,3.2008 0.44149,7.15496 -2.75931,8.83185c-3.2008,1.67688 -7.15495,0.44151 -8.83183,-2.75929c-1.67688,-3.2008 -0.44151,-7.15498 2.75929,-8.83186z" fill="#70470a"/><path d="M508.85538,29.84911c-3.83289,-7.31614 -0.82384,-16.4513 6.72093,-20.40398c7.54477,-3.95267 16.7682,-1.22604 20.60109,6.0901c3.83289,7.31614 0.82383,16.4513 -6.72095,20.40398c-7.54477,3.95267 -16.76818,1.22604 -20.60107,-6.0901z" fill="url(#color-43)"/><path d="M624.48248,84.54565c3.2008,-1.67688 7.15496,-0.44151 8.83185,2.75929c1.67688,3.2008 0.44151,7.15496 -2.75929,8.83185c-3.2008,1.67688 -7.15496,0.44151 -8.83185,-2.75929c-1.67688,-3.2008 -0.44151,-7.15496 2.75929,-8.83185z" fill="#70470a"/><path d="M616.89119,97.23586c-3.83289,-7.31614 -0.82383,-16.45128 6.72095,-20.40397c7.54477,-3.95267 16.76818,-1.22606 20.60107,6.09008c3.83289,7.31614 0.82384,16.4513 -6.72093,20.40398c-7.54477,3.95267 -16.7682,1.22604 -20.60109,-6.0901z" fill="url(#color-44)"/><path d="M961.48036,45.52295c-1.67688,3.2008 -5.63105,4.43617 -8.83185,2.75929c-3.2008,-1.67688 -4.43619,-5.63105 -2.75931,-8.83185c1.67688,-3.2008 5.63105,-4.43617 8.83185,-2.75929c3.2008,1.67688 4.43619,5.63105 2.75931,8.83185z" data-paper-data="{&quot;index&quot;:null}" fill="#70470a"/><path d="M945.71128,55.47141c-7.54477,-3.95269 -10.55382,-13.08784 -6.72093,-20.40398c3.83289,-7.31614 13.0563,-10.04277 20.60107,-6.0901c7.54477,3.95269 10.55382,13.08786 6.72093,20.404c-3.83289,7.31614 -13.0563,10.04275 -20.60107,6.09008z" data-paper-data="{&quot;index&quot;:null}" fill="url(#color-45)"/><path d="M853.44454,112.90969c-1.67688,3.2008 -5.63105,4.43617 -8.83185,2.75929c-3.2008,-1.67688 -4.43617,-5.63105 -2.75929,-8.83185c1.67688,-3.2008 5.63105,-4.43617 8.83185,-2.75929c3.2008,1.67688 4.43617,5.63105 2.75929,8.83185z" data-paper-data="{&quot;index&quot;:null}" fill="#70470a"/><path d="M837.67547,122.85815c-7.54477,-3.95269 -10.55384,-13.08784 -6.72095,-20.40398c3.83289,-7.31614 13.0563,-10.04275 20.60107,-6.09008c7.54477,3.95269 10.55384,13.08784 6.72095,20.40398c-3.83289,7.31614 -13.0563,10.04275 -20.60107,6.09008z" data-paper-data="{&quot;index&quot;:null}" fill="url(#color-46)"/><path d="M721.21686,239.30836c-1.67688,3.2008 -5.63105,4.43617 -8.83185,2.75929c-3.2008,-1.67688 -4.43619,-5.63105 -2.75931,-8.83185c1.67688,-3.2008 5.63105,-4.43617 8.83185,-2.75929c3.2008,1.67688 4.43619,5.63105 2.75931,8.83185z" data-paper-data="{&quot;index&quot;:null}" fill="#70470a"/><path d="M705.44777,249.25682c-7.54477,-3.95269 -10.55382,-13.08784 -6.72093,-20.40398c3.83289,-7.31614 13.0563,-10.04277 20.60107,-6.0901c7.54477,3.95269 10.55382,13.08786 6.72093,20.404c-3.83289,7.31614 -13.0563,10.04275 -20.60107,6.09008z" data-paper-data="{&quot;index&quot;:null}" fill="url(#color-47)"/><path d="M613.18104,306.69511c-1.67688,3.2008 -5.63105,4.43617 -8.83185,2.75929c-3.2008,-1.67688 -4.43617,-5.63105 -2.75929,-8.83185c1.67688,-3.2008 5.63105,-4.43617 8.83185,-2.75929c3.2008,1.67688 4.43617,5.63105 2.75929,8.83185z" data-paper-data="{&quot;index&quot;:null}" fill="#70470a"/><path d="M597.41197,316.64357c-7.54477,-3.95269 -10.55384,-13.08784 -6.72095,-20.40398c3.83289,-7.31614 13.0563,-10.04275 20.60107,-6.09008c7.54477,3.95269 10.55384,13.08784 6.72095,20.40398c-3.83289,7.31614 -13.0563,10.04275 -20.60107,6.09008z" data-paper-data="{&quot;index&quot;:null}" fill="url(#color-48)"/><path d="M942.16358,217.46505c0.79381,3.52518 -1.42043,7.02643 -4.94561,7.82024c-3.52518,0.79381 -7.02643,-1.42041 -7.82024,-4.94559c-0.79381,-3.52518 1.42041,-7.02643 4.94559,-7.82024c3.52518,-0.79381 7.02645,1.42041 7.82026,4.94559z" data-paper-data="{&quot;index&quot;:null}" fill="#70470a"/><path d="M936.58404,235.25563c-8.30941,1.87114 -16.51637,-3.14398 -18.33079,-11.20158c-1.81442,-8.05759 3.45078,-16.1064 11.76017,-17.97754c8.30941,-1.87114 16.51637,3.144 18.33079,11.2016c1.81442,8.05759 -3.45078,16.10639 -11.76017,17.97752z" data-paper-data="{&quot;index&quot;:null}" fill="url(#color-49)"/><path d="M903.4382,338.76244c0.79381,3.52518 -1.42043,7.02645 -4.94561,7.82026c-3.52518,0.79381 -7.02643,-1.42043 -7.82024,-4.94561c-0.79381,-3.52518 1.42043,-7.02643 4.94561,-7.82024c3.52518,-0.79381 7.02643,1.42041 7.82024,4.94559z" data-paper-data="{&quot;index&quot;:null}" fill="#70470a"/><path d="M897.85866,356.55302c-8.30941,1.87114 -16.51637,-3.14398 -18.33079,-11.20158c-1.81442,-8.05759 3.45078,-16.1064 11.76017,-17.97754c8.30941,-1.87114 16.51639,3.144 18.33081,11.2016c1.81442,8.05759 -3.45079,16.10639 -11.76018,17.97752z" data-paper-data="{&quot;index&quot;:null}" fill="url(#color-50)"/><path d="M775.19873,316.80145c-1.92931,3.05531 -5.97015,3.96808 -9.02545,2.03877c-3.05531,-1.92931 -3.96808,-5.97015 -2.03877,-9.02545c1.92931,-3.05531 5.97013,-3.96808 9.02544,-2.03877c3.05531,1.92931 3.9681,5.97015 2.03879,9.02545z" data-paper-data="{&quot;index&quot;:null}" fill="#70470a"/><path d="M758.67938,325.4471c-7.2018,-4.54769 -9.46508,-13.89557 -5.05521,-20.87912c4.40986,-6.98355 13.82297,-8.95822 21.02477,-4.41054c7.2018,4.54769 9.46508,13.89559 5.05521,20.87914c-4.40986,6.98355 -13.82297,8.9582 -21.02477,4.41053z" data-paper-data="{&quot;index&quot;:null}" fill="url(#color-51)"/><path d="M662.08499,375.26507c-1.92931,3.05531 -5.97013,3.96808 -9.02544,2.03877c-3.05531,-1.92931 -3.96808,-5.97013 -2.03877,-9.02544c1.92931,-3.05531 5.97013,-3.9681 9.02544,-2.03879c3.05531,1.92931 3.96808,5.97015 2.03877,9.02545z" data-paper-data="{&quot;index&quot;:null}" fill="#70470a"/><path d="M645.56566,383.91074c-7.2018,-4.54769 -9.46508,-13.89559 -5.05521,-20.87914c4.40986,-6.98355 13.82295,-8.9582 21.02475,-4.41053c7.2018,4.54769 9.46509,13.89559 5.05523,20.87914c-4.40986,6.98355 -13.82297,8.9582 -21.02477,4.41053z" data-paper-data="{&quot;index&quot;:null}" fill="url(#color-52)"/><path d="M815.92051,45.16315c-3.21817,1.64332 -7.15918,0.36665 -8.8025,-2.85152c-1.64332,-3.21817 -0.36665,-7.15918 2.85152,-8.8025c3.21817,-1.64332 7.15918,-0.36665 8.8025,2.85152c1.64332,3.21817 0.36665,7.15918 -2.85152,8.8025z" data-paper-data="{&quot;index&quot;:null}" fill="#70470a"/><path d="M797.30196,44.17032c-3.87354,-7.58571 -1.05059,-16.7801 6.30524,-20.53625c7.35582,-3.75616 16.45905,-0.6517 20.33259,6.934c3.87354,7.58571 1.05057,16.7801 -6.30525,20.53625c-7.35582,3.75616 -16.45903,0.6517 -20.33257,-6.934z" data-paper-data="{&quot;index&quot;:null}" fill="url(#color-53)"/><path d="M688.80841,37.73161c-3.21817,1.64332 -7.15918,0.36665 -8.8025,-2.85152c-1.64332,-3.21817 -0.36665,-7.15918 2.85152,-8.8025c3.21817,-1.64332 7.15918,-0.36665 8.8025,2.85152c1.64332,3.21817 0.36665,7.15918 -2.85152,8.8025z" data-paper-data="{&quot;index&quot;:null}" fill="#70470a"/><path d="M670.18988,36.73877c-3.87354,-7.58571 -1.05059,-16.78008 6.30524,-20.53624c7.35582,-3.75616 16.45903,-0.6517 20.33257,6.934c3.87354,7.58571 1.05059,16.7801 -6.30524,20.53625c-7.35582,3.75616 -16.45903,0.65169 -20.33257,-6.93401z" data-paper-data="{&quot;index&quot;:null}" fill="url(#color-54)"/></g></g></svg>