<svg version="1.1" xmlns="http://www.w3.org/2000/svg" xmlns:xlink="http://www.w3.org/1999/xlink" width="487.23319" height="260.95861" viewBox="0,0,487.23319,260.95861"><g transform="translate(3.6166,-49.52069)"><g data-paper-data="{&quot;isPaintingLayer&quot;:true}" fill-rule="nonzero" stroke-linejoin="miter" stroke-miterlimit="10" stroke-dasharray="" stroke-dashoffset="0" style="mix-blend-mode: normal"><path d="M479.86659,80.77113v198.46303c0,15.16206 -13.26259,27.49514 -29.58579,27.49514h-420.56731c-16.3061,0 -29.58009,-12.33308 -29.58009,-27.49514v-198.46833c0,-15.16206 13.27399,-27.49514 29.58009,-27.49514h420.56731c16.32319,0 29.58579,12.33838 29.58579,27.50044z" fill="none" stroke="#ffffff" stroke-width="7.5" stroke-linecap="butt"/><text transform="translate(12.09459,85.3216) scale(0.49203,0.5349)" font-size="40" xml:space="preserve" fill="#ffffff" fill-rule="nonzero" stroke="none" stroke-width="1" stroke-linecap="butt" stroke-linejoin="miter" stroke-miterlimit="10" stroke-dasharray="" stroke-dashoffset="0" font-family="Sans Serif" font-weight="normal" text-anchor="start" style="mix-blend-mode: normal"><tspan x="0" dy="0">Mi nombre es Edmundo</tspan><tspan x="0" dy="46.150000000000006px">Farge</tspan><tspan x="0" dy="46.150000000000006px">vivo en Peru en la region</tspan><tspan x="0" dy="46.150000000000006px">costa</tspan><tspan x="0" dy="46.150000000000006px">en lima .Tengo 44 años</tspan><tspan x="0" dy="46.150000000000006px">actualmente</tspan><tspan x="0" dy="46.150000000000006px">estoy en un curso </tspan><tspan x="0" dy="46.150000000000006px">de Oracle Next de</tspan><tspan x="0" dy="46.150000000000006px">Alura latam.</tspan></text><path d="M251.68993,300.86039v-244.81234" fill="none" stroke="#ffffff" stroke-width="3" stroke-linecap="round"/><text transform="translate(280.18621,91.11569) scale(0.4948,0.4948)" font-size="40" xml:space="preserve" fill="#ffffff" fill-rule="nonzero" stroke="none" stroke-width="1" stroke-linecap="butt" stroke-linejoin="miter" stroke-miterlimit="10" stroke-dasharray="" stroke-dashoffset="0" font-family="Sans Serif" font-weight="normal" text-anchor="start" style="mix-blend-mode: normal"><tspan x="0" dy="0">Soy serio en lo </tspan><tspan x="0" dy="46.150000000000006px">hago,me gusta</tspan><tspan x="0" dy="46.150000000000006px">programar,y </tspan><tspan x="0" dy="46.150000000000006px">tambien me </tspan><tspan x="0" dy="46.150000000000006px">gusta la tecnologia.</tspan></text><path d="M330.39572,237.70899l-8.11533,48.24111l-18.48491,6.76277l-17.13235,-6.76277l-8.11533,-49.14281z" fill="#ff4900" stroke="#ff4900" stroke-width="2.5" stroke-linecap="round"/><path d="M321.37868,285.28418l-16.90693,5.06172l0.22543,-50.94622l23.89513,-0.19304z" fill="#ff8554" stroke="#ffc7a5" stroke-width="0" stroke-linecap="round"/><text transform="translate(283.50717,282.70352) scale(1.7929,1.29798)" font-size="40" xml:space="preserve" fill="#ffd7c7" fill-rule="nonzero" stroke="none" stroke-width="1" stroke-linecap="butt" stroke-linejoin="miter" stroke-miterlimit="10" stroke-dasharray="" stroke-dashoffset="0" font-family="Sans Serif" font-weight="normal" text-anchor="start" style="mix-blend-mode: normal"><tspan x="0" dy="0">5</tspan></text><path d="M287.71511,281.1725v-12.47356h5.25993v12.47356z" fill="#ffd7c7" stroke="none" stroke-width="0" stroke-linecap="butt"/><path d="M415.62026,242.81919v41.16493c0,3.14489 -0.96947,5.703 -2.16267,5.703h-30.7428c-1.19195,0 -2.16226,-2.55811 -2.16226,-5.703v-41.16602c0,-3.14489 0.97031,-5.703 2.16226,-5.703h30.7428c1.1932,0 2.16267,2.55921 2.16267,5.7041z" fill="#5c607d" stroke="#000000" stroke-width="6.5" stroke-linecap="butt"/><path d="M398.32946,291.79981c-1.39661,0 -2.52879,-1.17411 -2.52879,-2.62245c0,-1.44834 1.13218,-2.62245 2.52879,-2.62245c1.39661,0 2.52879,1.17411 2.52879,2.62245c0,1.44834 -1.13218,2.62245 -2.52879,2.62245z" fill="#b9b9bb" stroke="none" stroke-width="0" stroke-linecap="butt"/><path d="M389.99828,268.72757v-12.4435h16.77167v12.4435z" fill="#ffffff" stroke="none" stroke-width="0" stroke-linecap="butt"/><path d="M403.54842,268.40787l3.19695,-3.44287l3.68878,8.23829z" fill="#ffffff" stroke="none" stroke-width="0" stroke-linecap="butt"/><path d="M391.25247,259.18591h12.78779" fill="none" stroke="#000000" stroke-width="0.5" stroke-linecap="round"/><path d="M392.3591,261.52214h10.57452" fill="none" stroke="#000000" stroke-width="0.5" stroke-linecap="round"/><path d="M391.62135,264.10429h10.08268" fill="none" stroke="#000000" stroke-width="0.5" stroke-linecap="round"/><path d="M393.09686,266.68644h10.45156" fill="none" stroke="#000000" stroke-width="0.5" stroke-linecap="round"/></g></g></svg>